<?xml version="1.0" encoding="UTF-8" standalone="no"?>
<!DOCTYPE svg PUBLIC "-//W3C//DTD SVG 1.1//EN" "http://www.w3.org/Graphics/SVG/1.1/DTD/svg11.dtd">
<svg width="100%" height="100%" viewBox="0 0 1533 562" version="1.1" xmlns="http://www.w3.org/2000/svg" xmlns:xlink="http://www.w3.org/1999/xlink" xml:space="preserve" style="fill-rule:evenodd;clip-rule:evenodd;stroke-linejoin:round;stroke-miterlimit:1.41421;">
    <g transform="matrix(1,0,0,1,-36,-21)">
        <g id="ToilOps" transform="matrix(1,0,0,1,419.521,-622.307)">
            <g id="Cog" transform="matrix(3.26218,0,0,3.26218,-685.336,-2010.37)">
                <g transform="matrix(0.887003,0,0,0.887003,-14.3404,114.641)">
                    <path d="M420.689,793.827C413.948,792.88 407.108,792.88 400.367,793.827L398.883,808.891C393.212,810.045 387.744,812.036 382.658,814.797L371.838,804.211C366.065,807.818 360.825,812.215 356.27,817.274L364.817,829.767C361.214,834.296 358.304,839.336 356.183,844.721L341.09,843.566C338.987,850.04 337.799,856.776 337.562,863.579L352.139,867.656C352.291,873.442 353.301,879.172 355.138,884.661L342.833,893.478C345.383,899.789 348.804,905.713 352.995,911.077L366.782,904.83C370.617,909.164 375.075,912.905 380.009,915.929L376.251,930.592C382.262,933.788 388.689,936.127 395.348,937.543L401.894,923.894C407.618,924.75 413.437,924.75 419.161,923.894L425.707,937.543C432.366,936.127 438.794,933.788 444.804,930.592L441.046,915.929C445.981,912.905 450.438,909.164 454.273,904.83L468.061,911.077C472.252,905.713 475.672,899.789 478.222,893.478L465.918,884.661C467.754,879.172 468.765,873.442 468.916,867.656L483.494,863.579C483.256,856.776 482.068,850.04 479.965,843.566L464.872,844.721C462.751,839.336 459.841,834.296 456.239,829.767L464.785,817.274C460.23,812.215 454.99,807.818 449.217,804.211L438.398,814.797C433.312,812.036 427.844,810.045 422.172,808.891L420.689,793.827Z" style="fill:rgb(38,38,38);fill-opacity:0.652174;"/>
                </g>
                <g transform="matrix(0.887003,0,0,0.887003,-15.8615,113.12)">
                    <path d="M420.689,793.827C413.948,792.88 407.108,792.88 400.367,793.827L398.883,808.891C393.212,810.045 387.744,812.036 382.658,814.797L371.838,804.211C366.065,807.818 360.825,812.215 356.27,817.274L364.817,829.767C361.214,834.296 358.304,839.336 356.183,844.721L341.09,843.566C338.987,850.04 337.799,856.776 337.562,863.579L352.139,867.656C352.291,873.442 353.301,879.172 355.138,884.661L342.833,893.478C345.383,899.789 348.804,905.713 352.995,911.077L366.782,904.83C370.617,909.164 375.075,912.905 380.009,915.929L376.251,930.592C382.262,933.788 388.689,936.127 395.348,937.543L401.894,923.894C407.618,924.75 413.437,924.75 419.161,923.894L425.707,937.543C432.366,936.127 438.794,933.788 444.804,930.592L441.046,915.929C445.981,912.905 450.438,909.164 454.273,904.83L468.061,911.077C472.252,905.713 475.672,899.789 478.222,893.478L465.918,884.661C467.754,879.172 468.765,873.442 468.916,867.656L483.494,863.579C483.256,856.776 482.068,850.04 479.965,843.566L464.872,844.721C462.751,839.336 459.841,834.296 456.239,829.767L464.785,817.274C460.23,812.215 454.99,807.818 449.217,804.211L438.398,814.797C433.312,812.036 427.844,810.045 422.172,808.891L420.689,793.827Z" style="fill:rgb(103,58,183);"/>
                </g>
                <g transform="matrix(1.14594,0,0,1.14594,61.3634,83.016)">
                    <circle cx="251.703" cy="697.398" r="34.906" style="fill:rgb(38,38,38);fill-opacity:0.652174;"/>
                </g>
                <g transform="matrix(1.14594,0,0,1.14594,59.8423,81.4949)">
                    <circle cx="251.703" cy="697.398" r="34.906" style="fill:rgb(138,100,206);"/>
                </g>
                <g transform="matrix(0.716211,0,0,0.716211,169.527,382.707)">
                    <circle cx="251.703" cy="697.398" r="34.906" style="fill:rgb(38,38,38);fill-opacity:0.652174;"/>
                </g>
                <g transform="matrix(0.716211,0,0,0.716211,168.006,381.186)">
                    <circle cx="251.703" cy="697.398" r="34.906" style="fill:rgb(197,178,230);"/>
                </g>
                <g transform="matrix(0.286484,0,0,0.286484,277.69,682.397)">
                    <circle cx="251.703" cy="697.398" r="34.906" style="fill:rgb(38,38,38);fill-opacity:0.652174;"/>
                </g>
                <g transform="matrix(0.286484,0,0,0.286484,276.169,680.876)">
                    <circle cx="251.703" cy="697.398" r="34.906" style="fill:rgb(226,216,243);"/>
                </g>
            </g>
            <g id="toilOpsText" transform="matrix(2.11668,0,0,1.75839,-541.394,-746.682)">
                <g opacity="0.652174">
                    <g transform="matrix(0.472437,0,0,0.568701,31.9265,342.07)">
                        <path d="M94.677,1138.19L94.677,843.499C94.677,839.772 96.544,836.603 100.277,833.992C104.01,831.382 108.117,830.077 112.597,830.077C117.45,830.077 121.744,831.378 125.477,833.979C129.21,836.581 131.077,839.74 131.077,843.456L131.077,955.517L203.317,955.517C207.05,955.517 210.13,957.038 212.557,960.08C214.984,963.122 216.197,966.734 216.197,970.917C216.197,975.099 214.984,978.712 212.557,981.754C210.13,984.796 207.05,986.317 203.317,986.317L131.077,986.317L131.077,1137.37C131.077,1155.51 134.904,1168.19 142.557,1175.41C150.21,1182.63 163.744,1186.24 183.157,1186.24L198.837,1186.24C203.69,1186.24 207.704,1187.88 210.877,1191.16C214.05,1194.44 215.637,1198.4 215.637,1203.03C215.637,1207.66 214.05,1211.71 210.877,1215.19C207.704,1218.66 203.69,1220.4 198.837,1220.4L183.157,1220.4C124.17,1220.4 94.677,1193 94.677,1138.19Z" style="fill:rgb(38,38,38);fill-rule:nonzero;"/>
                    </g>
                    <g transform="matrix(0.472437,0,0,0.568701,31.9265,342.07)">
                        <path d="M246.437,1117.92L246.437,1056.88C246.437,1028.5 256.89,1003.96 277.797,983.237C298.704,962.517 323.53,952.157 352.277,952.157C381.024,952.157 406.037,962.423 427.317,982.957C448.597,1003.49 459.237,1028.13 459.237,1056.88L459.237,1117.92C459.237,1145.92 448.504,1170.65 427.037,1192.12C405.57,1213.58 380.65,1224.32 352.277,1224.32C324.277,1224.32 299.637,1213.58 278.357,1192.12C257.077,1170.65 246.437,1145.92 246.437,1117.92ZM282.837,1117.75C282.837,1136.69 289.65,1153.49 303.277,1168.16C316.904,1182.82 333.237,1190.16 352.277,1190.16C371.69,1190.16 388.304,1182.82 402.117,1168.16C415.93,1153.49 422.837,1136.69 422.837,1117.75L422.837,1057.05C422.837,1038.86 415.837,1022.52 401.837,1008.04C387.837,993.557 371.317,986.317 352.277,986.317C333.237,986.317 316.904,993.557 303.277,1008.04C289.65,1022.52 282.837,1038.86 282.837,1057.05L282.837,1117.75Z" style="fill:rgb(38,38,38);fill-rule:nonzero;"/>
                    </g>
                    <g transform="matrix(0.472437,0,0,0.568701,31.9265,342.07)">
                        <path d="M519.157,870.117C514.304,865.45 511.877,859.943 511.877,853.597C511.877,847.25 514.304,841.837 519.157,837.357C524.01,832.877 529.984,830.637 537.077,830.637C543.797,830.637 549.49,832.877 554.157,837.357C558.824,841.837 561.157,847.25 561.157,853.597C561.157,859.943 558.824,865.45 554.157,870.117C549.49,874.783 543.797,877.117 537.077,877.117C529.984,877.117 524.01,874.783 519.157,870.117ZM519.157,1205.84L519.157,968.957C519.157,965.223 520.837,962.05 524.197,959.437C527.557,956.823 531.85,955.517 537.077,955.517C542.304,955.517 546.69,956.823 550.237,959.437C553.784,962.05 555.557,965.223 555.557,968.957L555.557,1205.84C555.557,1209.57 553.69,1212.93 549.957,1215.92C546.224,1218.9 541.93,1220.4 537.077,1220.4C532.224,1220.4 528.024,1218.9 524.477,1215.92C520.93,1212.93 519.157,1209.57 519.157,1205.84Z" style="fill:rgb(38,38,38);fill-rule:nonzero;"/>
                    </g>
                    <g transform="matrix(0.472437,0,0,0.568701,31.9265,342.07)">
                        <path d="M630.597,1205.84L630.597,806.557C630.597,802.823 632.277,799.65 635.637,797.037C638.997,794.423 643.29,793.117 648.517,793.117C653.744,793.117 658.13,794.423 661.677,797.037C665.224,799.65 666.997,802.823 666.997,806.557L666.997,1205.84C666.997,1209.57 665.224,1212.93 661.677,1215.92C658.13,1218.9 653.744,1220.4 648.517,1220.4C643.664,1220.4 639.464,1218.9 635.917,1215.92C632.37,1212.93 630.597,1209.57 630.597,1205.84Z" style="fill:rgb(38,38,38);fill-rule:nonzero;"/>
                    </g>
                    <g transform="matrix(0.472437,0,0,0.568701,31.9265,342.07)">
                        <path d="M1190.04,1336.32L1190.04,968.957C1190.04,965.223 1191.72,962.05 1195.08,959.437C1198.44,956.823 1202.73,955.517 1207.96,955.517C1212.81,955.517 1216.92,956.841 1220.28,959.489C1223.64,962.138 1225.32,965.352 1225.32,969.132L1225.32,995.224C1232.04,983.138 1241.93,972.938 1255,964.626C1268.06,956.313 1283.18,952.157 1300.36,952.157C1327.98,952.157 1351.69,962.423 1371.48,982.957C1391.26,1003.49 1401.16,1028.13 1401.16,1056.88L1401.16,1117.92C1401.16,1145.92 1391.17,1170.65 1371.2,1192.12C1351.22,1213.58 1328.17,1224.32 1302.04,1224.32C1285.61,1224.32 1270.49,1220.07 1256.68,1211.57C1242.86,1203.07 1232.78,1192.78 1226.44,1180.69L1226.44,1336.27C1226.44,1339.64 1224.66,1342.83 1221.12,1345.82C1217.57,1348.82 1213.18,1350.32 1207.96,1350.32C1203.1,1350.32 1198.9,1348.82 1195.36,1345.84C1191.81,1342.85 1190.04,1339.68 1190.04,1336.32ZM1226.44,1135.02C1226.44,1145.05 1233.44,1156.74 1247.44,1170.11C1261.44,1183.47 1277.4,1190.16 1295.32,1190.16C1313.61,1190.16 1329.76,1182.73 1343.76,1167.88C1357.76,1153.03 1364.76,1136.32 1364.76,1117.75L1364.76,1057.05C1364.76,1038.86 1357.76,1022.52 1343.76,1008.04C1329.76,993.557 1313.24,986.317 1294.2,986.317C1276.28,986.317 1260.5,992.815 1246.88,1005.81C1233.25,1018.81 1226.44,1035.89 1226.44,1057.05L1226.44,1135.02Z" style="fill:rgb(38,38,38);fill-rule:nonzero;"/>
                    </g>
                    <g transform="matrix(0.472437,0,0,0.568701,31.9265,342.07)">
                        <path d="M1444.28,1184C1444.28,1180.26 1445.58,1176.53 1448.2,1172.8C1450.81,1169.06 1453.8,1167.2 1457.16,1167.2C1459.77,1167.2 1463.88,1169.34 1469.48,1173.64C1475.08,1177.93 1483.1,1182.32 1493.56,1186.8C1504.01,1191.28 1516.52,1193.52 1531.08,1193.52C1550.86,1193.52 1565.42,1189.78 1574.76,1182.32C1584.09,1174.85 1588.76,1165.33 1588.76,1153.76C1588.76,1140.31 1584,1129.58 1574.48,1121.55C1564.96,1113.52 1553.48,1107.47 1540.03,1103.39C1526.59,1099.31 1513.06,1095.2 1499.43,1091.07C1485.81,1086.94 1474.24,1079.74 1464.72,1069.48C1455.2,1059.21 1450.44,1045.49 1450.44,1028.32C1450.44,1007.78 1457.81,989.957 1472.56,974.837C1487.3,959.717 1509.42,952.157 1538.92,952.157C1557.21,952.157 1574.29,955.05 1590.16,960.837C1606.02,966.623 1613.96,972.877 1613.96,979.597C1613.96,983.33 1612.46,987.437 1609.48,991.917C1606.49,996.397 1602.94,998.637 1598.84,998.637C1597.72,998.637 1590.81,996.023 1578.12,990.797C1565.42,985.57 1552.54,982.957 1539.48,982.957C1520.81,982.957 1506.81,987.345 1497.48,996.121C1488.14,1004.9 1483.48,1014.77 1483.48,1025.74C1483.48,1037.08 1488.32,1046.05 1498,1052.63C1507.68,1059.21 1519.25,1064.5 1532.71,1068.48C1546.18,1072.47 1559.82,1076.51 1573.65,1080.61C1587.48,1084.7 1599.05,1092.82 1608.38,1104.96C1617.7,1117.1 1622.36,1132.8 1622.36,1152.08C1622.36,1174.48 1614.42,1192.12 1598.56,1205C1582.69,1217.88 1560.57,1224.32 1532.2,1224.32C1507.56,1224.32 1486.74,1219.93 1469.76,1211.16C1452.77,1202.38 1444.28,1193.33 1444.28,1184Z" style="fill:rgb(38,38,38);fill-rule:nonzero;"/>
                    </g>
                </g>
            </g>
            <g id="toilOpsText1" transform="matrix(2.11668,0,0,1.75839,-545.616,-750.903)">
                <g transform="matrix(0.472437,0,0,0.568701,31.9265,342.07)">
                    <path d="M94.677,1138.19L94.677,843.499C94.677,839.772 96.544,836.603 100.277,833.992C104.01,831.382 108.117,830.077 112.597,830.077C117.45,830.077 121.744,831.378 125.477,833.979C129.21,836.581 131.077,839.74 131.077,843.456L131.077,955.517L203.317,955.517C207.05,955.517 210.13,957.038 212.557,960.08C214.984,963.122 216.197,966.734 216.197,970.917C216.197,975.099 214.984,978.712 212.557,981.754C210.13,984.796 207.05,986.317 203.317,986.317L131.077,986.317L131.077,1137.37C131.077,1155.51 134.904,1168.19 142.557,1175.41C150.21,1182.63 163.744,1186.24 183.157,1186.24L198.837,1186.24C203.69,1186.24 207.704,1187.88 210.877,1191.16C214.05,1194.44 215.637,1198.4 215.637,1203.03C215.637,1207.66 214.05,1211.71 210.877,1215.19C207.704,1218.66 203.69,1220.4 198.837,1220.4L183.157,1220.4C124.17,1220.4 94.677,1193 94.677,1138.19Z" style="fill:rgb(47,47,47);fill-rule:nonzero;"/>
                </g>
                <g transform="matrix(0.472437,0,0,0.568701,31.9265,342.07)">
                    <path d="M246.437,1117.92L246.437,1056.88C246.437,1028.5 256.89,1003.96 277.797,983.237C298.704,962.517 323.53,952.157 352.277,952.157C381.024,952.157 406.037,962.423 427.317,982.957C448.597,1003.49 459.237,1028.13 459.237,1056.88L459.237,1117.92C459.237,1145.92 448.504,1170.65 427.037,1192.12C405.57,1213.58 380.65,1224.32 352.277,1224.32C324.277,1224.32 299.637,1213.58 278.357,1192.12C257.077,1170.65 246.437,1145.92 246.437,1117.92ZM282.837,1117.75C282.837,1136.69 289.65,1153.49 303.277,1168.16C316.904,1182.82 333.237,1190.16 352.277,1190.16C371.69,1190.16 388.304,1182.82 402.117,1168.16C415.93,1153.49 422.837,1136.69 422.837,1117.75L422.837,1057.05C422.837,1038.86 415.837,1022.52 401.837,1008.04C387.837,993.557 371.317,986.317 352.277,986.317C333.237,986.317 316.904,993.557 303.277,1008.04C289.65,1022.52 282.837,1038.86 282.837,1057.05L282.837,1117.75Z" style="fill:rgb(47,47,47);fill-rule:nonzero;"/>
                </g>
                <g transform="matrix(0.472437,0,0,0.568701,31.9265,342.07)">
                    <path d="M519.157,870.117C514.304,865.45 511.877,859.943 511.877,853.597C511.877,847.25 514.304,841.837 519.157,837.357C524.01,832.877 529.984,830.637 537.077,830.637C543.797,830.637 549.49,832.877 554.157,837.357C558.824,841.837 561.157,847.25 561.157,853.597C561.157,859.943 558.824,865.45 554.157,870.117C549.49,874.783 543.797,877.117 537.077,877.117C529.984,877.117 524.01,874.783 519.157,870.117ZM519.157,1205.84L519.157,968.957C519.157,965.223 520.837,962.05 524.197,959.437C527.557,956.823 531.85,955.517 537.077,955.517C542.304,955.517 546.69,956.823 550.237,959.437C553.784,962.05 555.557,965.223 555.557,968.957L555.557,1205.84C555.557,1209.57 553.69,1212.93 549.957,1215.92C546.224,1218.9 541.93,1220.4 537.077,1220.4C532.224,1220.4 528.024,1218.9 524.477,1215.92C520.93,1212.93 519.157,1209.57 519.157,1205.84Z" style="fill:rgb(47,47,47);fill-rule:nonzero;"/>
                </g>
                <g transform="matrix(0.472437,0,0,0.568701,31.9265,342.07)">
                    <path d="M630.597,1205.84L630.597,806.557C630.597,802.823 632.277,799.65 635.637,797.037C638.997,794.423 643.29,793.117 648.517,793.117C653.744,793.117 658.13,794.423 661.677,797.037C665.224,799.65 666.997,802.823 666.997,806.557L666.997,1205.84C666.997,1209.57 665.224,1212.93 661.677,1215.92C658.13,1218.9 653.744,1220.4 648.517,1220.4C643.664,1220.4 639.464,1218.9 635.917,1215.92C632.37,1212.93 630.597,1209.57 630.597,1205.84Z" style="fill:rgb(47,47,47);fill-rule:nonzero;"/>
                </g>
                <g transform="matrix(0.472437,0,0,0.568701,31.9265,342.07)">
                    <path d="M1190.04,1336.32L1190.04,968.957C1190.04,965.223 1191.72,962.05 1195.08,959.437C1198.44,956.823 1202.73,955.517 1207.96,955.517C1212.81,955.517 1216.92,956.841 1220.28,959.489C1223.64,962.138 1225.32,965.352 1225.32,969.132L1225.32,995.224C1232.04,983.138 1241.93,972.938 1255,964.626C1268.06,956.313 1283.18,952.157 1300.36,952.157C1327.98,952.157 1351.69,962.423 1371.48,982.957C1391.26,1003.49 1401.16,1028.13 1401.16,1056.88L1401.16,1117.92C1401.16,1145.92 1391.17,1170.65 1371.2,1192.12C1351.22,1213.58 1328.17,1224.32 1302.04,1224.32C1285.61,1224.32 1270.49,1220.07 1256.68,1211.57C1242.86,1203.07 1232.78,1192.78 1226.44,1180.69L1226.44,1336.27C1226.44,1339.64 1224.66,1342.83 1221.12,1345.82C1217.57,1348.82 1213.18,1350.32 1207.96,1350.32C1203.1,1350.32 1198.9,1348.82 1195.36,1345.84C1191.81,1342.85 1190.04,1339.68 1190.04,1336.32ZM1226.44,1135.02C1226.44,1145.05 1233.44,1156.74 1247.44,1170.11C1261.44,1183.47 1277.4,1190.16 1295.32,1190.16C1313.61,1190.16 1329.76,1182.73 1343.76,1167.88C1357.76,1153.03 1364.76,1136.32 1364.76,1117.75L1364.76,1057.05C1364.76,1038.86 1357.76,1022.52 1343.76,1008.04C1329.76,993.557 1313.24,986.317 1294.2,986.317C1276.28,986.317 1260.5,992.815 1246.88,1005.81C1233.25,1018.81 1226.44,1035.89 1226.44,1057.05L1226.44,1135.02Z" style="fill:rgb(47,47,47);fill-rule:nonzero;"/>
                </g>
                <g transform="matrix(0.472437,0,0,0.568701,31.9265,342.07)">
                    <path d="M1444.28,1184C1444.28,1180.26 1445.58,1176.53 1448.2,1172.8C1450.81,1169.06 1453.8,1167.2 1457.16,1167.2C1459.77,1167.2 1463.88,1169.34 1469.48,1173.64C1475.08,1177.93 1483.1,1182.32 1493.56,1186.8C1504.01,1191.28 1516.52,1193.52 1531.08,1193.52C1550.86,1193.52 1565.42,1189.78 1574.76,1182.32C1584.09,1174.85 1588.76,1165.33 1588.76,1153.76C1588.76,1140.31 1584,1129.58 1574.48,1121.55C1564.96,1113.52 1553.48,1107.47 1540.03,1103.39C1526.59,1099.31 1513.06,1095.2 1499.43,1091.07C1485.81,1086.94 1474.24,1079.74 1464.72,1069.48C1455.2,1059.21 1450.44,1045.49 1450.44,1028.32C1450.44,1007.78 1457.81,989.957 1472.56,974.837C1487.3,959.717 1509.42,952.157 1538.92,952.157C1557.21,952.157 1574.29,955.05 1590.16,960.837C1606.02,966.623 1613.96,972.877 1613.96,979.597C1613.96,983.33 1612.46,987.437 1609.48,991.917C1606.49,996.397 1602.94,998.637 1598.84,998.637C1597.72,998.637 1590.81,996.023 1578.12,990.797C1565.42,985.57 1552.54,982.957 1539.48,982.957C1520.81,982.957 1506.81,987.345 1497.48,996.121C1488.14,1004.9 1483.48,1014.77 1483.48,1025.74C1483.48,1037.08 1488.32,1046.05 1498,1052.63C1507.68,1059.21 1519.25,1064.5 1532.71,1068.48C1546.18,1072.47 1559.82,1076.51 1573.65,1080.61C1587.48,1084.7 1599.05,1092.82 1608.38,1104.96C1617.7,1117.1 1622.36,1132.8 1622.36,1152.08C1622.36,1174.48 1614.42,1192.12 1598.56,1205C1582.69,1217.88 1560.57,1224.32 1532.2,1224.32C1507.56,1224.32 1486.74,1219.93 1469.76,1211.16C1452.77,1202.38 1444.28,1193.33 1444.28,1184Z" style="fill:rgb(47,47,47);fill-rule:nonzero;"/>
                </g>
            </g>
        </g>
    </g>
</svg>
