<?xml version="1.0" encoding="UTF-8" standalone="no"?>
<!DOCTYPE svg PUBLIC "-//W3C//DTD SVG 1.1//EN" "http://www.w3.org/Graphics/SVG/1.1/DTD/svg11.dtd">
<svg width="100%" height="100%" viewBox="0 0 560 560" version="1.1" xmlns="http://www.w3.org/2000/svg" xmlns:xlink="http://www.w3.org/1999/xlink" xml:space="preserve" style="fill-rule:evenodd;clip-rule:evenodd;stroke-linejoin:round;stroke-miterlimit:1.41421;">
    <g id="Layer2" transform="matrix(1,0,0,1,366.939,-542.298)">
        <g transform="matrix(1,0,0,1,-366.939,542.298)">
            <circle cx="280" cy="280" r="280" style="fill:rgb(77,77,77);"/>
        </g>
        <g id="Layer3" transform="matrix(3.26218,0,0,3.26218,-1223.08,-2052.91)">
            <g transform="matrix(0.887003,0,0,0.887003,-14.3404,114.641)">
                <path d="M420.689,793.827C413.948,792.88 407.108,792.88 400.367,793.827L398.883,808.891C393.212,810.045 387.744,812.036 382.658,814.797L371.838,804.211C366.065,807.818 360.825,812.215 356.27,817.274L364.817,829.767C361.214,834.296 358.304,839.336 356.183,844.721L341.09,843.566C338.987,850.04 337.799,856.776 337.562,863.579L352.139,867.656C352.291,873.442 353.301,879.172 355.138,884.661L342.833,893.478C345.383,899.789 348.804,905.713 352.995,911.077L366.782,904.83C370.617,909.164 375.075,912.905 380.009,915.929L376.251,930.592C382.262,933.788 388.689,936.127 395.348,937.543L401.894,923.894C407.618,924.75 413.437,924.75 419.161,923.894L425.707,937.543C432.366,936.127 438.794,933.788 444.804,930.592L441.046,915.929C445.981,912.905 450.438,909.164 454.273,904.83L468.061,911.077C472.252,905.713 475.672,899.789 478.222,893.478L465.918,884.661C467.754,879.172 468.765,873.442 468.916,867.656L483.494,863.579C483.256,856.776 482.068,850.04 479.965,843.566L464.872,844.721C462.751,839.336 459.841,834.296 456.239,829.767L464.785,817.274C460.23,812.215 454.99,807.818 449.217,804.211L438.398,814.797C433.312,812.036 427.844,810.045 422.172,808.891L420.689,793.827Z" style="fill:rgb(38,38,38);fill-opacity:0.652174;"/>
            </g>
            <g transform="matrix(0.887003,0,0,0.887003,-15.8615,113.12)">
                <path d="M420.689,793.827C413.948,792.88 407.108,792.88 400.367,793.827L398.883,808.891C393.212,810.045 387.744,812.036 382.658,814.797L371.838,804.211C366.065,807.818 360.825,812.215 356.27,817.274L364.817,829.767C361.214,834.296 358.304,839.336 356.183,844.721L341.09,843.566C338.987,850.04 337.799,856.776 337.562,863.579L352.139,867.656C352.291,873.442 353.301,879.172 355.138,884.661L342.833,893.478C345.383,899.789 348.804,905.713 352.995,911.077L366.782,904.83C370.617,909.164 375.075,912.905 380.009,915.929L376.251,930.592C382.262,933.788 388.689,936.127 395.348,937.543L401.894,923.894C407.618,924.75 413.437,924.75 419.161,923.894L425.707,937.543C432.366,936.127 438.794,933.788 444.804,930.592L441.046,915.929C445.981,912.905 450.438,909.164 454.273,904.83L468.061,911.077C472.252,905.713 475.672,899.789 478.222,893.478L465.918,884.661C467.754,879.172 468.765,873.442 468.916,867.656L483.494,863.579C483.256,856.776 482.068,850.04 479.965,843.566L464.872,844.721C462.751,839.336 459.841,834.296 456.239,829.767L464.785,817.274C460.23,812.215 454.99,807.818 449.217,804.211L438.398,814.797C433.312,812.036 427.844,810.045 422.172,808.891L420.689,793.827Z" style="fill:rgb(103,58,183);"/>
            </g>
            <g transform="matrix(1.14594,0,0,1.14594,61.3634,83.016)">
                <circle cx="251.703" cy="697.398" r="34.906" style="fill:rgb(38,38,38);fill-opacity:0.652174;"/>
            </g>
            <g transform="matrix(1.14594,0,0,1.14594,59.8423,81.4949)">
                <circle cx="251.703" cy="697.398" r="34.906" style="fill:rgb(138,100,206);"/>
            </g>
            <g transform="matrix(0.716211,0,0,0.716211,169.527,382.707)">
                <circle cx="251.703" cy="697.398" r="34.906" style="fill:rgb(38,38,38);fill-opacity:0.652174;"/>
            </g>
            <g transform="matrix(0.716211,0,0,0.716211,168.006,381.186)">
                <circle cx="251.703" cy="697.398" r="34.906" style="fill:rgb(197,178,230);"/>
            </g>
            <g transform="matrix(0.286484,0,0,0.286484,277.69,682.397)">
                <circle cx="251.703" cy="697.398" r="34.906" style="fill:rgb(38,38,38);fill-opacity:0.652174;"/>
            </g>
            <g transform="matrix(0.286484,0,0,0.286484,276.169,680.876)">
                <circle cx="251.703" cy="697.398" r="34.906" style="fill:rgb(226,216,243);"/>
            </g>
        </g>
    </g>
</svg>
